<mxfile host="Electron" agent="Mozilla/5.0 (Windows NT 10.0; WOW64) AppleWebKit/537.36 (KHTML, like Gecko) draw.io/24.7.5 Chrome/126.0.6478.183 Electron/31.3.0 Safari/537.36" version="24.7.5">
  <diagram id="C5RBs43oDa-KdzZeNtuy" name="Page-1">
    <mxGraphModel dx="2345" dy="2313" grid="1" gridSize="10" guides="1" tooltips="1" connect="1" arrows="1" fold="1" page="1" pageScale="1" pageWidth="827" pageHeight="1169" math="0" shadow="0">
      <root>
        <mxCell id="WIyWlLk6GJQsqaUBKTNV-0" />
        <mxCell id="WIyWlLk6GJQsqaUBKTNV-1" parent="WIyWlLk6GJQsqaUBKTNV-0" />
        <mxCell id="gOm9M10wizrIDPV8sYjz-9" style="edgeStyle=orthogonalEdgeStyle;rounded=0;orthogonalLoop=1;jettySize=auto;html=1;exitX=0.5;exitY=1;exitDx=0;exitDy=0;" parent="WIyWlLk6GJQsqaUBKTNV-1" edge="1">
          <mxGeometry relative="1" as="geometry">
            <mxPoint x="567.5" y="400" as="sourcePoint" />
            <mxPoint x="567.5" y="400" as="targetPoint" />
          </mxGeometry>
        </mxCell>
        <mxCell id="gOm9M10wizrIDPV8sYjz-29" style="edgeStyle=orthogonalEdgeStyle;rounded=0;orthogonalLoop=1;jettySize=auto;html=1;exitX=0.5;exitY=1;exitDx=0;exitDy=0;" parent="WIyWlLk6GJQsqaUBKTNV-1" edge="1">
          <mxGeometry relative="1" as="geometry">
            <mxPoint x="567.5" y="515" as="sourcePoint" />
            <mxPoint x="567.5" y="515" as="targetPoint" />
          </mxGeometry>
        </mxCell>
        <mxCell id="gOm9M10wizrIDPV8sYjz-37" style="edgeStyle=orthogonalEdgeStyle;rounded=0;orthogonalLoop=1;jettySize=auto;html=1;exitX=0.5;exitY=1;exitDx=0;exitDy=0;" parent="WIyWlLk6GJQsqaUBKTNV-1" edge="1">
          <mxGeometry relative="1" as="geometry">
            <mxPoint x="567.5" y="515" as="sourcePoint" />
            <mxPoint x="567.5" y="515" as="targetPoint" />
          </mxGeometry>
        </mxCell>
        <mxCell id="gOm9M10wizrIDPV8sYjz-42" style="edgeStyle=orthogonalEdgeStyle;rounded=0;orthogonalLoop=1;jettySize=auto;html=1;exitX=0.5;exitY=1;exitDx=0;exitDy=0;" parent="WIyWlLk6GJQsqaUBKTNV-1" edge="1">
          <mxGeometry relative="1" as="geometry">
            <mxPoint x="487.5" y="630" as="sourcePoint" />
            <mxPoint x="487.5" y="630" as="targetPoint" />
          </mxGeometry>
        </mxCell>
        <mxCell id="gOm9M10wizrIDPV8sYjz-47" style="edgeStyle=orthogonalEdgeStyle;rounded=0;orthogonalLoop=1;jettySize=auto;html=1;exitX=0.5;exitY=1;exitDx=0;exitDy=0;" parent="WIyWlLk6GJQsqaUBKTNV-1" edge="1">
          <mxGeometry relative="1" as="geometry">
            <mxPoint x="487" y="630" as="sourcePoint" />
            <mxPoint x="487" y="630" as="targetPoint" />
          </mxGeometry>
        </mxCell>
        <mxCell id="gOm9M10wizrIDPV8sYjz-49" style="edgeStyle=orthogonalEdgeStyle;rounded=0;orthogonalLoop=1;jettySize=auto;html=1;exitX=0.5;exitY=1;exitDx=0;exitDy=0;" parent="WIyWlLk6GJQsqaUBKTNV-1" edge="1">
          <mxGeometry relative="1" as="geometry">
            <mxPoint x="487" y="630" as="sourcePoint" />
            <mxPoint x="487" y="630" as="targetPoint" />
          </mxGeometry>
        </mxCell>
        <mxCell id="gOm9M10wizrIDPV8sYjz-68" style="edgeStyle=orthogonalEdgeStyle;rounded=0;orthogonalLoop=1;jettySize=auto;html=1;exitX=0.5;exitY=1;exitDx=0;exitDy=0;" parent="WIyWlLk6GJQsqaUBKTNV-1" edge="1">
          <mxGeometry relative="1" as="geometry">
            <mxPoint x="567.5" y="822" as="sourcePoint" />
            <mxPoint x="567.5" y="822" as="targetPoint" />
          </mxGeometry>
        </mxCell>
        <mxCell id="gOm9M10wizrIDPV8sYjz-85" style="edgeStyle=orthogonalEdgeStyle;rounded=0;orthogonalLoop=1;jettySize=auto;html=1;exitX=0.5;exitY=1;exitDx=0;exitDy=0;" parent="WIyWlLk6GJQsqaUBKTNV-1" edge="1">
          <mxGeometry relative="1" as="geometry">
            <mxPoint x="437.5" y="905" as="sourcePoint" />
            <mxPoint x="437.5" y="905" as="targetPoint" />
          </mxGeometry>
        </mxCell>
        <mxCell id="gOm9M10wizrIDPV8sYjz-87" style="edgeStyle=orthogonalEdgeStyle;rounded=0;orthogonalLoop=1;jettySize=auto;html=1;exitX=0.5;exitY=1;exitDx=0;exitDy=0;" parent="WIyWlLk6GJQsqaUBKTNV-1" edge="1">
          <mxGeometry relative="1" as="geometry">
            <mxPoint x="437.5" y="905" as="sourcePoint" />
            <mxPoint x="437.5" y="905" as="targetPoint" />
          </mxGeometry>
        </mxCell>
        <mxCell id="V958gM-r8nCfdOlmP6lS-55" style="edgeStyle=orthogonalEdgeStyle;rounded=0;orthogonalLoop=1;jettySize=auto;html=1;exitX=0.5;exitY=1;exitDx=0;exitDy=0;entryX=0.5;entryY=0;entryDx=0;entryDy=0;" edge="1" parent="WIyWlLk6GJQsqaUBKTNV-1" source="V958gM-r8nCfdOlmP6lS-9" target="V958gM-r8nCfdOlmP6lS-54">
          <mxGeometry relative="1" as="geometry" />
        </mxCell>
        <mxCell id="V958gM-r8nCfdOlmP6lS-9" value="" style="rhombus;whiteSpace=wrap;html=1;" vertex="1" parent="WIyWlLk6GJQsqaUBKTNV-1">
          <mxGeometry x="345.63" y="25" width="78.75" height="60" as="geometry" />
        </mxCell>
        <mxCell id="V958gM-r8nCfdOlmP6lS-29" value="" style="ellipse;html=1;shape=endState;fillColor=#000000;strokeColor=#ff0000;" vertex="1" parent="WIyWlLk6GJQsqaUBKTNV-1">
          <mxGeometry x="367.5" y="-230" width="30" height="30" as="geometry" />
        </mxCell>
        <mxCell id="V958gM-r8nCfdOlmP6lS-30" value="" style="ellipse;html=1;shape=endState;fillColor=#000000;strokeColor=#ff0000;" vertex="1" parent="WIyWlLk6GJQsqaUBKTNV-1">
          <mxGeometry x="369.99" y="910" width="30" height="30" as="geometry" />
        </mxCell>
        <mxCell id="V958gM-r8nCfdOlmP6lS-47" style="edgeStyle=orthogonalEdgeStyle;rounded=0;orthogonalLoop=1;jettySize=auto;html=1;exitX=0.5;exitY=1;exitDx=0;exitDy=0;exitPerimeter=0;entryX=0.5;entryY=0;entryDx=0;entryDy=0;" edge="1" parent="WIyWlLk6GJQsqaUBKTNV-1" source="V958gM-r8nCfdOlmP6lS-37" target="V958gM-r8nCfdOlmP6lS-9">
          <mxGeometry relative="1" as="geometry" />
        </mxCell>
        <mxCell id="V958gM-r8nCfdOlmP6lS-37" value="ввід x" style="strokeWidth=2;html=1;shape=mxgraph.flowchart.terminator;whiteSpace=wrap;" vertex="1" parent="WIyWlLk6GJQsqaUBKTNV-1">
          <mxGeometry x="332.5" y="-30" width="105" height="30" as="geometry" />
        </mxCell>
        <mxCell id="V958gM-r8nCfdOlmP6lS-38" value="ввід b" style="strokeWidth=2;html=1;shape=mxgraph.flowchart.terminator;whiteSpace=wrap;" vertex="1" parent="WIyWlLk6GJQsqaUBKTNV-1">
          <mxGeometry x="332.5" y="-130" width="105" height="30" as="geometry" />
        </mxCell>
        <mxCell id="V958gM-r8nCfdOlmP6lS-39" value="ввід c" style="strokeWidth=2;html=1;shape=mxgraph.flowchart.terminator;whiteSpace=wrap;" vertex="1" parent="WIyWlLk6GJQsqaUBKTNV-1">
          <mxGeometry x="332.5" y="-80" width="105" height="30" as="geometry" />
        </mxCell>
        <mxCell id="V958gM-r8nCfdOlmP6lS-40" value="ввід a" style="strokeWidth=2;html=1;shape=mxgraph.flowchart.terminator;whiteSpace=wrap;" vertex="1" parent="WIyWlLk6GJQsqaUBKTNV-1">
          <mxGeometry x="332.5" y="-180" width="105" height="30" as="geometry" />
        </mxCell>
        <mxCell id="V958gM-r8nCfdOlmP6lS-42" style="edgeStyle=orthogonalEdgeStyle;rounded=0;orthogonalLoop=1;jettySize=auto;html=1;exitX=0.5;exitY=1;exitDx=0;exitDy=0;entryX=0.5;entryY=0;entryDx=0;entryDy=0;entryPerimeter=0;" edge="1" parent="WIyWlLk6GJQsqaUBKTNV-1" source="V958gM-r8nCfdOlmP6lS-29" target="V958gM-r8nCfdOlmP6lS-40">
          <mxGeometry relative="1" as="geometry" />
        </mxCell>
        <mxCell id="V958gM-r8nCfdOlmP6lS-43" style="edgeStyle=orthogonalEdgeStyle;rounded=0;orthogonalLoop=1;jettySize=auto;html=1;exitX=0.5;exitY=1;exitDx=0;exitDy=0;exitPerimeter=0;entryX=0.5;entryY=0;entryDx=0;entryDy=0;entryPerimeter=0;" edge="1" parent="WIyWlLk6GJQsqaUBKTNV-1" source="V958gM-r8nCfdOlmP6lS-40" target="V958gM-r8nCfdOlmP6lS-38">
          <mxGeometry relative="1" as="geometry" />
        </mxCell>
        <mxCell id="V958gM-r8nCfdOlmP6lS-44" style="edgeStyle=orthogonalEdgeStyle;rounded=0;orthogonalLoop=1;jettySize=auto;html=1;exitX=0.5;exitY=1;exitDx=0;exitDy=0;exitPerimeter=0;entryX=0.5;entryY=0;entryDx=0;entryDy=0;entryPerimeter=0;" edge="1" parent="WIyWlLk6GJQsqaUBKTNV-1" source="V958gM-r8nCfdOlmP6lS-38" target="V958gM-r8nCfdOlmP6lS-39">
          <mxGeometry relative="1" as="geometry" />
        </mxCell>
        <mxCell id="V958gM-r8nCfdOlmP6lS-45" style="edgeStyle=orthogonalEdgeStyle;rounded=0;orthogonalLoop=1;jettySize=auto;html=1;exitX=0.5;exitY=1;exitDx=0;exitDy=0;exitPerimeter=0;entryX=0.5;entryY=0;entryDx=0;entryDy=0;entryPerimeter=0;" edge="1" parent="WIyWlLk6GJQsqaUBKTNV-1" source="V958gM-r8nCfdOlmP6lS-39" target="V958gM-r8nCfdOlmP6lS-37">
          <mxGeometry relative="1" as="geometry" />
        </mxCell>
        <mxCell id="V958gM-r8nCfdOlmP6lS-51" value="[ x &amp;lt; 5 &amp;amp;&amp;amp; c !=0 ]" style="text;html=1;align=center;verticalAlign=middle;resizable=0;points=[];autosize=1;strokeColor=none;fillColor=none;" vertex="1" parent="WIyWlLk6GJQsqaUBKTNV-1">
          <mxGeometry x="397.5" y="10" width="110" height="30" as="geometry" />
        </mxCell>
        <mxCell id="V958gM-r8nCfdOlmP6lS-56" style="edgeStyle=orthogonalEdgeStyle;rounded=0;orthogonalLoop=1;jettySize=auto;html=1;exitX=0.5;exitY=1;exitDx=0;exitDy=0;exitPerimeter=0;entryX=1;entryY=0.5;entryDx=0;entryDy=0;" edge="1" parent="WIyWlLk6GJQsqaUBKTNV-1" source="V958gM-r8nCfdOlmP6lS-52" target="V958gM-r8nCfdOlmP6lS-54">
          <mxGeometry relative="1" as="geometry" />
        </mxCell>
        <mxCell id="V958gM-r8nCfdOlmP6lS-52" value="F = -a * pow(x, 2) - b" style="strokeWidth=2;html=1;shape=mxgraph.flowchart.terminator;whiteSpace=wrap;" vertex="1" parent="WIyWlLk6GJQsqaUBKTNV-1">
          <mxGeometry x="470" y="35" width="120" height="40" as="geometry" />
        </mxCell>
        <mxCell id="V958gM-r8nCfdOlmP6lS-53" style="edgeStyle=orthogonalEdgeStyle;rounded=0;orthogonalLoop=1;jettySize=auto;html=1;exitX=1;exitY=0.5;exitDx=0;exitDy=0;entryX=0;entryY=0.5;entryDx=0;entryDy=0;entryPerimeter=0;" edge="1" parent="WIyWlLk6GJQsqaUBKTNV-1" source="V958gM-r8nCfdOlmP6lS-9" target="V958gM-r8nCfdOlmP6lS-52">
          <mxGeometry relative="1" as="geometry" />
        </mxCell>
        <mxCell id="V958gM-r8nCfdOlmP6lS-58" style="edgeStyle=orthogonalEdgeStyle;rounded=0;orthogonalLoop=1;jettySize=auto;html=1;exitX=0.5;exitY=1;exitDx=0;exitDy=0;entryX=0.5;entryY=0;entryDx=0;entryDy=0;" edge="1" parent="WIyWlLk6GJQsqaUBKTNV-1" source="V958gM-r8nCfdOlmP6lS-54" target="V958gM-r8nCfdOlmP6lS-57">
          <mxGeometry relative="1" as="geometry" />
        </mxCell>
        <mxCell id="V958gM-r8nCfdOlmP6lS-54" value="" style="rhombus;whiteSpace=wrap;html=1;" vertex="1" parent="WIyWlLk6GJQsqaUBKTNV-1">
          <mxGeometry x="345.63" y="100" width="78.75" height="60" as="geometry" />
        </mxCell>
        <mxCell id="V958gM-r8nCfdOlmP6lS-66" style="edgeStyle=orthogonalEdgeStyle;rounded=0;orthogonalLoop=1;jettySize=auto;html=1;exitX=0.5;exitY=1;exitDx=0;exitDy=0;entryX=0.5;entryY=0;entryDx=0;entryDy=0;" edge="1" parent="WIyWlLk6GJQsqaUBKTNV-1" source="V958gM-r8nCfdOlmP6lS-57" target="V958gM-r8nCfdOlmP6lS-65">
          <mxGeometry relative="1" as="geometry" />
        </mxCell>
        <mxCell id="V958gM-r8nCfdOlmP6lS-57" value="" style="rhombus;whiteSpace=wrap;html=1;" vertex="1" parent="WIyWlLk6GJQsqaUBKTNV-1">
          <mxGeometry x="345.63" y="180" width="78.75" height="60" as="geometry" />
        </mxCell>
        <mxCell id="V958gM-r8nCfdOlmP6lS-67" style="edgeStyle=orthogonalEdgeStyle;rounded=0;orthogonalLoop=1;jettySize=auto;html=1;exitX=0.5;exitY=1;exitDx=0;exitDy=0;exitPerimeter=0;entryX=1;entryY=0.5;entryDx=0;entryDy=0;" edge="1" parent="WIyWlLk6GJQsqaUBKTNV-1" source="V958gM-r8nCfdOlmP6lS-60" target="V958gM-r8nCfdOlmP6lS-65">
          <mxGeometry relative="1" as="geometry" />
        </mxCell>
        <mxCell id="V958gM-r8nCfdOlmP6lS-60" value="F = (x - a) / x" style="strokeWidth=2;html=1;shape=mxgraph.flowchart.terminator;whiteSpace=wrap;" vertex="1" parent="WIyWlLk6GJQsqaUBKTNV-1">
          <mxGeometry x="470" y="190" width="120" height="40" as="geometry" />
        </mxCell>
        <mxCell id="V958gM-r8nCfdOlmP6lS-62" value="[ x &amp;gt; 5 &amp;amp;&amp;amp; c == 0 ]" style="text;html=1;align=center;verticalAlign=middle;resizable=0;points=[];autosize=1;strokeColor=none;fillColor=none;" vertex="1" parent="WIyWlLk6GJQsqaUBKTNV-1">
          <mxGeometry x="387.5" y="168" width="120" height="30" as="geometry" />
        </mxCell>
        <mxCell id="V958gM-r8nCfdOlmP6lS-63" style="edgeStyle=orthogonalEdgeStyle;rounded=0;orthogonalLoop=1;jettySize=auto;html=1;exitX=1;exitY=0.5;exitDx=0;exitDy=0;entryX=0;entryY=0.5;entryDx=0;entryDy=0;entryPerimeter=0;" edge="1" parent="WIyWlLk6GJQsqaUBKTNV-1" source="V958gM-r8nCfdOlmP6lS-57" target="V958gM-r8nCfdOlmP6lS-60">
          <mxGeometry relative="1" as="geometry" />
        </mxCell>
        <mxCell id="V958gM-r8nCfdOlmP6lS-73" style="edgeStyle=orthogonalEdgeStyle;rounded=0;orthogonalLoop=1;jettySize=auto;html=1;exitX=0.5;exitY=1;exitDx=0;exitDy=0;exitPerimeter=0;entryX=1;entryY=0.5;entryDx=0;entryDy=0;" edge="1" parent="WIyWlLk6GJQsqaUBKTNV-1" source="V958gM-r8nCfdOlmP6lS-64" target="V958gM-r8nCfdOlmP6lS-71">
          <mxGeometry relative="1" as="geometry" />
        </mxCell>
        <mxCell id="V958gM-r8nCfdOlmP6lS-64" value="&amp;nbsp;F = -x / c" style="strokeWidth=2;html=1;shape=mxgraph.flowchart.terminator;whiteSpace=wrap;" vertex="1" parent="WIyWlLk6GJQsqaUBKTNV-1">
          <mxGeometry x="670" y="350" width="120" height="40" as="geometry" />
        </mxCell>
        <mxCell id="V958gM-r8nCfdOlmP6lS-69" style="edgeStyle=orthogonalEdgeStyle;rounded=0;orthogonalLoop=1;jettySize=auto;html=1;exitX=0.5;exitY=1;exitDx=0;exitDy=0;entryX=0.5;entryY=0;entryDx=0;entryDy=0;" edge="1" parent="WIyWlLk6GJQsqaUBKTNV-1" source="V958gM-r8nCfdOlmP6lS-65" target="V958gM-r8nCfdOlmP6lS-68">
          <mxGeometry relative="1" as="geometry" />
        </mxCell>
        <mxCell id="V958gM-r8nCfdOlmP6lS-65" value="" style="rhombus;whiteSpace=wrap;html=1;" vertex="1" parent="WIyWlLk6GJQsqaUBKTNV-1">
          <mxGeometry x="345.62" y="260" width="78.75" height="60" as="geometry" />
        </mxCell>
        <mxCell id="V958gM-r8nCfdOlmP6lS-70" style="edgeStyle=orthogonalEdgeStyle;rounded=0;orthogonalLoop=1;jettySize=auto;html=1;exitX=1;exitY=0.5;exitDx=0;exitDy=0;" edge="1" parent="WIyWlLk6GJQsqaUBKTNV-1" source="V958gM-r8nCfdOlmP6lS-68" target="V958gM-r8nCfdOlmP6lS-64">
          <mxGeometry relative="1" as="geometry" />
        </mxCell>
        <mxCell id="V958gM-r8nCfdOlmP6lS-72" style="edgeStyle=orthogonalEdgeStyle;rounded=0;orthogonalLoop=1;jettySize=auto;html=1;exitX=0.5;exitY=1;exitDx=0;exitDy=0;" edge="1" parent="WIyWlLk6GJQsqaUBKTNV-1" source="V958gM-r8nCfdOlmP6lS-68" target="V958gM-r8nCfdOlmP6lS-71">
          <mxGeometry relative="1" as="geometry" />
        </mxCell>
        <mxCell id="V958gM-r8nCfdOlmP6lS-68" value="" style="rhombus;whiteSpace=wrap;html=1;" vertex="1" parent="WIyWlLk6GJQsqaUBKTNV-1">
          <mxGeometry x="345.62" y="340" width="78.75" height="60" as="geometry" />
        </mxCell>
        <mxCell id="V958gM-r8nCfdOlmP6lS-71" value="" style="rhombus;whiteSpace=wrap;html=1;" vertex="1" parent="WIyWlLk6GJQsqaUBKTNV-1">
          <mxGeometry x="345.63" y="420" width="78.75" height="60" as="geometry" />
        </mxCell>
        <mxCell id="V958gM-r8nCfdOlmP6lS-89" style="edgeStyle=orthogonalEdgeStyle;rounded=0;orthogonalLoop=1;jettySize=auto;html=1;exitX=0.5;exitY=1;exitDx=0;exitDy=0;exitPerimeter=0;entryX=0.5;entryY=0;entryDx=0;entryDy=0;" edge="1" parent="WIyWlLk6GJQsqaUBKTNV-1" source="V958gM-r8nCfdOlmP6lS-74" target="V958gM-r8nCfdOlmP6lS-78">
          <mxGeometry relative="1" as="geometry" />
        </mxCell>
        <mxCell id="V958gM-r8nCfdOlmP6lS-74" value="вивід F" style="strokeWidth=2;html=1;shape=mxgraph.flowchart.terminator;whiteSpace=wrap;" vertex="1" parent="WIyWlLk6GJQsqaUBKTNV-1">
          <mxGeometry x="325.01" y="500" width="120" height="40" as="geometry" />
        </mxCell>
        <mxCell id="V958gM-r8nCfdOlmP6lS-75" style="edgeStyle=orthogonalEdgeStyle;rounded=0;orthogonalLoop=1;jettySize=auto;html=1;exitX=0.5;exitY=1;exitDx=0;exitDy=0;entryX=0.5;entryY=0;entryDx=0;entryDy=0;entryPerimeter=0;" edge="1" parent="WIyWlLk6GJQsqaUBKTNV-1" source="V958gM-r8nCfdOlmP6lS-71" target="V958gM-r8nCfdOlmP6lS-74">
          <mxGeometry relative="1" as="geometry" />
        </mxCell>
        <mxCell id="V958gM-r8nCfdOlmP6lS-76" value="[ !(x &amp;lt; 5 &amp;amp;&amp;amp; c != 0) &amp;amp;&amp;amp; !(x &amp;gt; 5 &amp;amp;&amp;amp; c == 0) ]" style="text;html=1;align=center;verticalAlign=middle;resizable=0;points=[];autosize=1;strokeColor=none;fillColor=none;" vertex="1" parent="WIyWlLk6GJQsqaUBKTNV-1">
          <mxGeometry x="424.37" y="340" width="240" height="30" as="geometry" />
        </mxCell>
        <mxCell id="V958gM-r8nCfdOlmP6lS-77" style="edgeStyle=orthogonalEdgeStyle;rounded=0;orthogonalLoop=1;jettySize=auto;html=1;exitX=0.5;exitY=1;exitDx=0;exitDy=0;entryX=0.5;entryY=0;entryDx=0;entryDy=0;" edge="1" parent="WIyWlLk6GJQsqaUBKTNV-1" source="V958gM-r8nCfdOlmP6lS-78" target="V958gM-r8nCfdOlmP6lS-84">
          <mxGeometry relative="1" as="geometry" />
        </mxCell>
        <mxCell id="V958gM-r8nCfdOlmP6lS-78" value="" style="rhombus;whiteSpace=wrap;html=1;" vertex="1" parent="WIyWlLk6GJQsqaUBKTNV-1">
          <mxGeometry x="345.63" y="555" width="78.75" height="60" as="geometry" />
        </mxCell>
        <mxCell id="V958gM-r8nCfdOlmP6lS-79" value="[ x &amp;lt; 5 &amp;amp;&amp;amp; c !=0 ]" style="text;html=1;align=center;verticalAlign=middle;resizable=0;points=[];autosize=1;strokeColor=none;fillColor=none;" vertex="1" parent="WIyWlLk6GJQsqaUBKTNV-1">
          <mxGeometry x="397.5" y="540" width="110" height="30" as="geometry" />
        </mxCell>
        <mxCell id="V958gM-r8nCfdOlmP6lS-94" style="edgeStyle=orthogonalEdgeStyle;rounded=0;orthogonalLoop=1;jettySize=auto;html=1;exitX=1;exitY=0.5;exitDx=0;exitDy=0;exitPerimeter=0;entryX=1;entryY=0.5;entryDx=0;entryDy=0;" edge="1" parent="WIyWlLk6GJQsqaUBKTNV-1" source="V958gM-r8nCfdOlmP6lS-81" target="V958gM-r8nCfdOlmP6lS-92">
          <mxGeometry relative="1" as="geometry" />
        </mxCell>
        <mxCell id="V958gM-r8nCfdOlmP6lS-81" value="F = -a * pow(x, 2) - b" style="strokeWidth=2;html=1;shape=mxgraph.flowchart.terminator;whiteSpace=wrap;" vertex="1" parent="WIyWlLk6GJQsqaUBKTNV-1">
          <mxGeometry x="470" y="565" width="120" height="40" as="geometry" />
        </mxCell>
        <mxCell id="V958gM-r8nCfdOlmP6lS-82" style="edgeStyle=orthogonalEdgeStyle;rounded=0;orthogonalLoop=1;jettySize=auto;html=1;exitX=1;exitY=0.5;exitDx=0;exitDy=0;entryX=0;entryY=0.5;entryDx=0;entryDy=0;entryPerimeter=0;" edge="1" parent="WIyWlLk6GJQsqaUBKTNV-1" source="V958gM-r8nCfdOlmP6lS-78" target="V958gM-r8nCfdOlmP6lS-81">
          <mxGeometry relative="1" as="geometry" />
        </mxCell>
        <mxCell id="V958gM-r8nCfdOlmP6lS-84" value="" style="rhombus;whiteSpace=wrap;html=1;" vertex="1" parent="WIyWlLk6GJQsqaUBKTNV-1">
          <mxGeometry x="345.63" y="630" width="78.75" height="60" as="geometry" />
        </mxCell>
        <mxCell id="V958gM-r8nCfdOlmP6lS-95" style="edgeStyle=orthogonalEdgeStyle;rounded=0;orthogonalLoop=1;jettySize=auto;html=1;exitX=0.5;exitY=1;exitDx=0;exitDy=0;exitPerimeter=0;entryX=0.5;entryY=0;entryDx=0;entryDy=0;" edge="1" parent="WIyWlLk6GJQsqaUBKTNV-1" source="V958gM-r8nCfdOlmP6lS-86" target="V958gM-r8nCfdOlmP6lS-92">
          <mxGeometry relative="1" as="geometry" />
        </mxCell>
        <mxCell id="V958gM-r8nCfdOlmP6lS-86" value="F = (x - a) / x" style="strokeWidth=2;html=1;shape=mxgraph.flowchart.terminator;whiteSpace=wrap;" vertex="1" parent="WIyWlLk6GJQsqaUBKTNV-1">
          <mxGeometry x="470" y="640" width="120" height="40" as="geometry" />
        </mxCell>
        <mxCell id="V958gM-r8nCfdOlmP6lS-87" value="[ x &amp;gt; 5 &amp;amp;&amp;amp; c == 0 ]" style="text;html=1;align=center;verticalAlign=middle;resizable=0;points=[];autosize=1;strokeColor=none;fillColor=none;" vertex="1" parent="WIyWlLk6GJQsqaUBKTNV-1">
          <mxGeometry x="405.01" y="615" width="120" height="30" as="geometry" />
        </mxCell>
        <mxCell id="V958gM-r8nCfdOlmP6lS-88" style="edgeStyle=orthogonalEdgeStyle;rounded=0;orthogonalLoop=1;jettySize=auto;html=1;exitX=1;exitY=0.5;exitDx=0;exitDy=0;entryX=0;entryY=0.5;entryDx=0;entryDy=0;entryPerimeter=0;" edge="1" parent="WIyWlLk6GJQsqaUBKTNV-1" target="V958gM-r8nCfdOlmP6lS-86">
          <mxGeometry relative="1" as="geometry">
            <mxPoint x="424.3800000000001" y="660" as="sourcePoint" />
          </mxGeometry>
        </mxCell>
        <mxCell id="V958gM-r8nCfdOlmP6lS-97" style="edgeStyle=orthogonalEdgeStyle;rounded=0;orthogonalLoop=1;jettySize=auto;html=1;exitX=0.5;exitY=1;exitDx=0;exitDy=0;exitPerimeter=0;entryX=0.5;entryY=0;entryDx=0;entryDy=0;" edge="1" parent="WIyWlLk6GJQsqaUBKTNV-1" source="V958gM-r8nCfdOlmP6lS-90" target="V958gM-r8nCfdOlmP6lS-96">
          <mxGeometry relative="1" as="geometry" />
        </mxCell>
        <mxCell id="V958gM-r8nCfdOlmP6lS-90" value="&amp;nbsp;F = -x / c" style="strokeWidth=2;html=1;shape=mxgraph.flowchart.terminator;whiteSpace=wrap;" vertex="1" parent="WIyWlLk6GJQsqaUBKTNV-1">
          <mxGeometry x="325.01" y="710" width="120" height="40" as="geometry" />
        </mxCell>
        <mxCell id="V958gM-r8nCfdOlmP6lS-91" style="edgeStyle=orthogonalEdgeStyle;rounded=0;orthogonalLoop=1;jettySize=auto;html=1;exitX=0.5;exitY=1;exitDx=0;exitDy=0;entryX=0.5;entryY=0;entryDx=0;entryDy=0;entryPerimeter=0;" edge="1" parent="WIyWlLk6GJQsqaUBKTNV-1" source="V958gM-r8nCfdOlmP6lS-84" target="V958gM-r8nCfdOlmP6lS-90">
          <mxGeometry relative="1" as="geometry" />
        </mxCell>
        <mxCell id="V958gM-r8nCfdOlmP6lS-98" style="edgeStyle=orthogonalEdgeStyle;rounded=0;orthogonalLoop=1;jettySize=auto;html=1;exitX=0;exitY=0.5;exitDx=0;exitDy=0;entryX=1;entryY=0.5;entryDx=0;entryDy=0;" edge="1" parent="WIyWlLk6GJQsqaUBKTNV-1" source="V958gM-r8nCfdOlmP6lS-92" target="V958gM-r8nCfdOlmP6lS-96">
          <mxGeometry relative="1" as="geometry">
            <mxPoint x="430" y="800" as="targetPoint" />
          </mxGeometry>
        </mxCell>
        <mxCell id="V958gM-r8nCfdOlmP6lS-92" value="" style="rhombus;whiteSpace=wrap;html=1;" vertex="1" parent="WIyWlLk6GJQsqaUBKTNV-1">
          <mxGeometry x="490.62" y="770" width="78.75" height="60" as="geometry" />
        </mxCell>
        <mxCell id="V958gM-r8nCfdOlmP6lS-96" value="" style="rhombus;whiteSpace=wrap;html=1;" vertex="1" parent="WIyWlLk6GJQsqaUBKTNV-1">
          <mxGeometry x="345.63" y="770" width="78.75" height="60" as="geometry" />
        </mxCell>
        <mxCell id="V958gM-r8nCfdOlmP6lS-101" style="edgeStyle=orthogonalEdgeStyle;rounded=0;orthogonalLoop=1;jettySize=auto;html=1;exitX=0.5;exitY=1;exitDx=0;exitDy=0;exitPerimeter=0;entryX=0.5;entryY=0;entryDx=0;entryDy=0;" edge="1" parent="WIyWlLk6GJQsqaUBKTNV-1" source="V958gM-r8nCfdOlmP6lS-99" target="V958gM-r8nCfdOlmP6lS-30">
          <mxGeometry relative="1" as="geometry" />
        </mxCell>
        <mxCell id="V958gM-r8nCfdOlmP6lS-99" value="вивід F" style="strokeWidth=2;html=1;shape=mxgraph.flowchart.terminator;whiteSpace=wrap;" vertex="1" parent="WIyWlLk6GJQsqaUBKTNV-1">
          <mxGeometry x="324.99" y="850" width="120" height="40" as="geometry" />
        </mxCell>
        <mxCell id="V958gM-r8nCfdOlmP6lS-100" style="edgeStyle=orthogonalEdgeStyle;rounded=0;orthogonalLoop=1;jettySize=auto;html=1;exitX=0.5;exitY=1;exitDx=0;exitDy=0;entryX=0.5;entryY=0;entryDx=0;entryDy=0;entryPerimeter=0;" edge="1" parent="WIyWlLk6GJQsqaUBKTNV-1" source="V958gM-r8nCfdOlmP6lS-96" target="V958gM-r8nCfdOlmP6lS-99">
          <mxGeometry relative="1" as="geometry" />
        </mxCell>
      </root>
    </mxGraphModel>
  </diagram>
</mxfile>
